<?xml version="1.0" encoding="UTF-8"?>
<svg width="52px" height="60px" viewBox="0 0 52 60" version="1.1" xmlns="http://www.w3.org/2000/svg" xmlns:xlink="http://www.w3.org/1999/xlink">
    <!-- Generator: Sketch 50.2 (55047) - http://www.bohemiancoding.com/sketch -->
    <title>快捷入口-抢购管理icon</title>
    <desc>Created with Sketch.</desc>
    <defs></defs>
    <g id="Page-1" stroke="none" stroke-width="1" fill="none" fill-rule="evenodd">
        <g id="后管系统首页" transform="translate(-1032.000000, -695.000000)" fill="#4A90E2">
            <g id="运营快捷入口" transform="translate(299.000000, 601.000000)">
                <path d="M784.78369,148.368696 L782.58653,113.17115 L782.457361,113.17115 C782.395202,110.940052 780.568034,109.163755 778.335778,109.164551 L774.501692,109.164551 C774.516672,109.002313 774.516672,108.8387 774.501692,108.67639 C774.501692,100.591553 767.565547,94 759.021059,94 C750.476572,94 743.583699,100.56268 743.583699,108.647589 C743.56872,108.810117 743.56872,108.973513 743.583699,109.135751 L739.275563,109.135751 C737.002567,109.151598 735.16838,110.998811 735.16838,113.271735 L735.16838,113.372102 L733.00002,148.382807 C732.996329,149.66385 733.50345,150.893227 734.409146,151.798851 C735.31477,152.704836 736.544364,153.211957 737.82519,153.207977 L779.901208,153.207977 C781.181962,153.211957 782.411556,152.704836 783.317252,151.798851 C784.222876,150.893227 784.729996,149.66385 784.726306,148.382807 L784.78369,148.368696 Z M749.830369,108.647589 C749.979075,103.681094 754.11108,99.7669755 759.078733,99.8876771 C764.043491,99.7672649 768.171587,103.683338 768.312334,108.647589 C768.297354,108.810117 768.297354,108.973513 768.312334,109.135751 L749.772985,109.135751 C749.807213,108.975177 749.826389,108.811781 749.830369,108.647589 Z M767.134769,130.360493 L755.646552,144.721163 C755.402326,145.036883 755.115117,144.979499 755.186901,144.548721 L756.651747,134.683029 C756.691547,134.433159 756.615566,134.178441 756.445078,133.99131 C756.274663,133.804179 756.028122,133.70468 755.77572,133.720817 L751.180375,133.720817 C750.62014,133.720817 750.433588,133.390697 750.806981,132.974319 L762.869834,119.001443 C763.185627,118.62805 763.458363,118.771618 763.372468,119.202396 L761.764054,129.125472 C761.707538,129.367744 761.777948,129.621883 761.950606,129.800475 C762.131514,129.98652 762.380587,130.090217 762.640081,130.087684 L766.948217,130.087684 C767.041204,130.098394 767.116678,130.168224 767.134769,130.260125 C767.15286,130.351954 767.149169,130.331909 767.134769,130.360493 Z" id="快捷入口-抢购管理icon"></path>
            </g>
        </g>
    </g>
</svg>