<?xml version="1.0" encoding="UTF-8"?>
<svg width="53px" height="60px" viewBox="0 0 53 60" version="1.1" xmlns="http://www.w3.org/2000/svg" xmlns:xlink="http://www.w3.org/1999/xlink">
    <!-- Generator: Sketch 50.2 (55047) - http://www.bohemiancoding.com/sketch -->
    <title>快捷入口-积分管理icon</title>
    <desc>Created with Sketch.</desc>
    <defs></defs>
    <g id="Page-1" stroke="none" stroke-width="1" fill="none" fill-rule="evenodd">
        <g id="后管系统首页" transform="translate(-1130.000000, -695.000000)" fill="#4A90E2">
            <g id="运营快捷入口" transform="translate(299.000000, 601.000000)">
                <path d="M857.337385,122.446055 C871.881964,122.446055 883.675138,116.079983 883.675138,108.220135 C883.675138,100.366072 871.881964,94 857.337385,94 C842.7931,94 831,100.366072 831,108.225847 C831,116.079983 842.7931,122.446055 857.337385,122.446055 Z M857.337385,126.730142 C846.579708,126.730142 837.327034,123.243957 833.239352,118.252056 C831.800635,120.010164 831,121.95394 831,124.000183 C831,131.853952 842.7931,138.226031 857.337385,138.226031 C871.881964,138.226031 883.675138,131.859958 883.675138,124.000183 C883.675138,121.95394 882.874503,120.010164 881.435492,118.252056 C877.348104,123.243957 868.095429,126.730142 857.337385,126.730142 Z M857.337385,142.894054 C846.441334,142.894054 837.086145,139.318073 833.082899,134.223999 C831.740302,135.928054 831,137.806059 831,139.774153 C831,147.633928 842.7931,154 857.337385,154 C871.881964,154 883.675138,147.633928 883.675138,139.774153 C883.675138,137.806059 882.934542,135.928054 881.592239,134.223999 C877.588919,139.318073 868.233804,142.894054 857.337385,142.894054 Z" id="快捷入口-积分管理icon"></path>
            </g>
        </g>
    </g>
</svg>