<?xml version="1.0" encoding="UTF-8"?>
<svg width="83px" height="63px" viewBox="0 0 83 63" version="1.1" xmlns="http://www.w3.org/2000/svg" xmlns:xlink="http://www.w3.org/1999/xlink">
    <!-- Generator: Sketch 50.2 (55047) - http://www.bohemiancoding.com/sketch -->
    <title>首页统计-昨日销售额icon</title>
    <desc>Created with Sketch.</desc>
    <defs></defs>
    <g id="Page-1" stroke="none" stroke-width="1" fill="none" fill-rule="evenodd" opacity="0.5">
        <g id="后管系统首页" transform="translate(-885.000000, -297.000000)" fill="#FFFFFF">
            <g id="数据显示" transform="translate(300.000000, 191.000000)">
                <g id="Group-6" transform="translate(474.000000, 0.000000)">
                    <g id="Oval-3-+-Oval-3-Mask">
                        <g id="首页统计-昨日销售额icon" transform="translate(111.000000, 106.000000)">
                            <path d="M44.4951954,19.6186958 C44.4951954,20.3830201 43.77555,21 42.8827994,21 L18.1027006,21 C17.2100475,21 16.4904021,20.3830201 16.4904021,19.6186958 C16.4904021,18.8539787 17.2100475,18.2369005 18.1027006,18.2369005 L42.8827994,18.2369005 C43.77555,18.2369005 44.4951954,18.8539787 44.4951954,19.6186958 Z M41.9371609,17.1372206 L18.902068,17.2044096 C17.7695657,17.2044096 13,11.7192706 13,7.50767798 C13,2.42469086 17.3030404,2.86741151 20.6207276,2.82713739 C23.4451528,2.80032072 26.4026759,-1.19644386 28.5474631,0.359512467 C31.5320155,2.51869656 32.2379998,7.62850034 33.0106307,7.62850034 C34.3298016,7.62850034 32.970916,0.976492371 39.5388634,0.976492371 C46.0938327,0.976492371 48.7051453,2.47842243 47.8391314,7.22605381 C46.9197417,12.2557023 42.9895508,17.0033337 41.9371609,17.1372206 Z" id="Fill-1"></path>
                            <path d="M43.5171615,53.1254921 C43.5171615,44.3019336 48.661553,36.6787894 56.1270148,33.0496806 C53.3037931,28.462454 49.5302519,24.658046 45.145798,22 L16.9264059,22 C7.77772816,27.5587835 0,38.405793 0,52.6800305 C0,68.4249435 14.5237148,72 31.1242344,72 C38.3726706,72 45.0914173,71.2851666 50.3581901,69.1533147 C46.1368782,65.1192588 43.5171615,59.4256905 43.5171615,53.1254921 Z M40.6530798,55.9857152 C40.2729122,56.2554823 39.7979015,56.3767293 39.2142289,56.3767293 L33.1196173,56.3767293 L33.1196173,58.1171718 C33.1196173,58.6432671 32.9024923,59.1423857 32.467944,59.6283617 C32.0337934,60.1139425 31.4636414,60.343294 30.7713069,60.275704 C30.0792706,60.275704 29.481978,60.1139425 29.0205873,59.8036609 C28.5588984,59.4932805 28.3010127,58.9266708 28.2466321,58.1171718 L28.2466321,56.3767293 L22.328683,56.3767293 C21.7450104,56.3767293 21.2699998,56.2149678 20.8898322,55.9046862 C20.5096646,55.5943058 20.3469202,55.1893587 20.4149209,54.7308535 C20.4149209,54.2046594 20.6048059,53.7862733 20.9849735,53.462454 C21.3647434,53.1520736 21.8129117,52.9903121 22.328683,52.9903121 L28.2466321,52.9903121 L28.2466321,49.9683276 L22.328683,49.9683276 C21.7450104,49.9683276 21.2836198,49.7927319 20.9305928,49.4422323 C20.5775658,49.0913374 20.4013009,48.6864891 20.4013009,48.227885 C20.4013009,47.7689845 20.5911859,47.3508949 20.9713535,46.9325088 C21.3512228,46.5414947 21.7992917,46.3388235 22.315063,46.3388235 L28.2466321,46.3388235 L28.3281534,44.5311863 C27.2831895,43.4920394 26.3328699,42.50734 25.450551,41.5763965 C24.6905141,40.7533597 23.9845595,40.0115496 23.3601263,39.3232976 L22.0571774,38.1089503 C21.7721511,37.7584507 21.5142654,37.2724747 21.2836198,36.6787894 C21.0389565,36.0854994 21.1748585,35.4512996 21.6362491,34.8170999 C22.165541,34.2504901 22.7899743,34.0887287 23.5504089,34.3450568 C24.2968259,34.601385 24.9212591,34.9252044 25.3690297,35.3431951 C25.6132954,35.6265988 26.007083,36.0585227 26.5907556,36.6386702 L30.7713069,40.793973 C31.7487671,39.8629306 32.6582266,39.026455 33.4317842,38.3116215 C34.1242181,37.6774218 34.8298744,37.043222 35.5223083,36.4495368 C36.2143446,35.8288748 36.7167942,35.4243229 37.0018205,35.1815325 C37.5312118,34.7225332 38.1148844,34.4932805 38.75254,34.4932805 C39.3905933,34.4932805 39.9062652,34.7496087 40.3272928,35.2621662 C41.0736104,36.1256186 40.7885841,37.1377887 39.4584945,38.284546 C39.105567,38.5678509 38.5897957,39.0669694 37.8841394,39.7953406 C37.1918048,40.5105693 36.4857509,41.2119638 35.7937146,41.9137536 C34.9793964,42.777206 34.0834575,43.6677339 33.0923772,44.5987763 L33.0923772,46.2311143 L38.75254,46.2311143 C39.5808759,46.2311143 40.1645485,46.4198525 40.5443184,46.7977241 C40.9244861,47.1756945 41.1144704,47.607223 41.1144704,48.0657283 C41.1144704,48.5923177 40.9381061,49.0238462 40.5850791,49.4017178 C40.2321515,49.7791941 39.6483795,49.9413509 38.8340613,49.8737608 L33.1739979,49.9548886 L33.0923772,52.9092832 L38.6577963,52.9092832 C40.2864328,52.9092832 41.1008504,53.5029684 41.1008504,54.7173157 C41.1823717,55.311001 41.0332474,55.7289918 40.6530798,55.9857152 Z M58.8823352,56.9704146 L61,56.9704146 L61,52.9228209 L58.8823352,52.9228209 L58.8823352,56.9704146 Z M58.8823352,50.6427453 L61,50.6427453 L61,46.7977241 L58.8823352,46.7977241 L58.8823352,50.6427453 Z" id="Fill-3"></path>
                            <path d="M65.4998545,35 C55.8293316,35 48,42.8293316 48,52.5002426 C48,62.1707654 55.8293316,70 65.4998545,70 C75.1706684,70 83,62.1707654 83,52.5002426 C83,42.8293316 75.1706684,35 65.4998545,35 Z M75.6607535,48.0619201 L69.778858,48.0619201 L69.778858,50.3008264 L75.1574726,50.3008264 L75.1574726,52.6191981 L69.778858,52.6191981 L69.778858,55.0699151 L75.3560876,55.0699151 L75.3560876,57.4148724 L69.778858,57.4148724 L69.778858,62.488724 L67.2220901,62.488724 L67.2220901,48.0491125 L66.8115673,48.0491125 C66.175553,49.4794898 65.4205831,50.8044954 64.6254439,51.824447 C64.320681,51.4401216 63.671859,50.7381287 63.1286999,50.221555 L63.1286999,58.5807531 L58.5980073,58.5807531 L58.5980073,60.236622 L56.1605831,60.236622 L56.1605831,43.9819196 L63.1286999,43.9819196 L63.1286999,49.320656 C64.4268289,47.4926606 65.4998545,44.8297447 66.0826978,42.1804127 L68.62627,42.7500603 C68.4144593,43.7435234 68.1096964,44.6974964 67.7518595,45.6775698 L75.6740463,45.6775698 L75.6740463,48.0619201 L75.6607535,48.0619201 Z" id="Fill-4"></path>
                        </g>
                    </g>
                </g>
            </g>
        </g>
    </g>
</svg>