<?xml version="1.0" encoding="UTF-8"?>
<svg width="51px" height="61px" viewBox="0 0 51 61" version="1.1" xmlns="http://www.w3.org/2000/svg" xmlns:xlink="http://www.w3.org/1999/xlink">
    <!-- Generator: Sketch 50.2 (55047) - http://www.bohemiancoding.com/sketch -->
    <title>快捷入口-短信营销icon</title>
    <desc>Created with Sketch.</desc>
    <defs></defs>
    <g id="Page-1" stroke="none" stroke-width="1" fill="none" fill-rule="evenodd">
        <g id="后管系统首页" transform="translate(-737.000000, -695.000000)" fill="#4A90E2">
            <g id="运营快捷入口" transform="translate(299.000000, 601.000000)">
                <path d="M482.577648,148.133748 L469.838202,148.133748 L457.099195,154.5 L457.099195,148.133748 C453.579826,148.133748 450.732504,145.279923 450.732504,141.767496 L450.732504,125.844704 C450.732504,122.325775 453.586329,119.478452 457.099195,119.478452 L482.577648,119.478452 C486.097017,119.478452 488.9439,122.332277 488.9439,125.844704 L488.9439,141.767496 C488.9439,145.286426 486.097017,148.133748 482.577648,148.133748 Z M460.282102,129.02805 C458.522637,129.02805 457.099195,130.451492 457.099195,132.211396 C457.099195,133.970861 458.522637,135.394302 460.282102,135.394302 C462.042006,135.394302 463.465447,133.970861 463.465447,132.211396 C463.465447,130.451492 462.042006,129.02805 460.282102,129.02805 Z M469.838202,129.02805 C468.078737,129.02805 466.655296,130.451492 466.655296,132.211396 C466.655296,133.970861 468.078737,135.394302 469.838202,135.394302 C471.598106,135.394302 473.021548,133.970861 473.021548,132.211396 C473.021548,130.451492 471.598106,129.02805 469.838202,129.02805 Z M479.394302,129.02805 C477.634837,129.02805 476.211396,130.451492 476.211396,132.211396 C476.211396,133.970861 477.634837,135.394302 479.394302,135.394302 C481.154206,135.394302 482.577648,133.970861 482.577648,132.211396 C482.577648,130.451492 481.154206,129.02805 479.394302,129.02805 Z M469.838202,100.366252 L441.176404,100.366252 L441.176404,132.211396 L447.549598,132.211396 L447.549598,148.133748 L444.366252,148.133748 C440.846883,148.133748 438,145.279923 438,141.767496 L438,100.366252 C438,96.8468831 440.853825,94 444.366252,94 L466.661798,94 C470.181167,94 473.02805,96.853825 473.02805,100.366252 L473.02805,116.288604 L469.844704,116.288604 L469.844704,100.366252 L469.838202,100.366252 Z" id="快捷入口-短信营销icon"></path>
            </g>
        </g>
    </g>
</svg>