<?xml version="1.0" encoding="UTF-8"?>
<svg width="60px" height="52px" viewBox="0 0 60 52" version="1.1" xmlns="http://www.w3.org/2000/svg" xmlns:xlink="http://www.w3.org/1999/xlink">
    <!-- Generator: Sketch 50.2 (55047) - http://www.bohemiancoding.com/sketch -->
    <title>快捷入口-广告管理icon</title>
    <desc>Created with Sketch.</desc>
    <defs></defs>
    <g id="Page-1" stroke="none" stroke-width="1" fill="none" fill-rule="evenodd">
        <g id="后管系统首页" transform="translate(-830.000000, -699.000000)" fill="#4A90E2">
            <g id="运营快捷入口" transform="translate(299.000000, 601.000000)">
                <g id="快捷入口-广告管理icon" transform="translate(531.000000, 98.000000)">
                    <path d="M58.1212269,52 L1.87877308,52 C0.848499645,52 0,51.0787039 0,49.9635013 L0,49.0725378 C0,47.9576312 0.848499645,47.0363351 1.87877308,47.0363351 L58.1212269,47.0363351 C59.1515004,47.0363351 60,47.9576312 60,49.0725378 L60,49.9635013 C60,51.0787039 59.1515004,52 58.1212269,52 Z M2.84860322,40.0302529 L57.1152936,40.0302529 L57.1152936,0 L2.84860322,0 L2.84860322,40.0302529 Z M24.7212358,29.8667729 L23.8120709,26.6120889 L17.4120354,26.6120889 L16.5332771,29.8667729 L10.7998935,29.8667729 L17.6545484,10.1332214 L23.7817383,10.1332214 L30.6059866,29.8667729 L24.7212358,29.8667729 Z M48.5637133,24.8666349 C48.1090939,26.0182365 47.5031072,27.0060423 46.7150509,27.7938012 C45.9272165,28.5818559 45.0787169,29.1089767 44.169552,29.3757553 C42.9271721,29.7393022 41.8061967,29.902876 40.7998935,29.902876 L32.4544271,29.902876 L32.4544271,10.163554 L40.8241596,10.163554 C42.4604936,10.163554 43.7938713,10.3939335 44.8302113,10.8848771 C45.8303741,11.3758947 46.6788737,12.0665894 47.3455996,12.9575529 C48.0120295,13.8485165 48.4969076,14.9333864 48.7697532,16.1150987 C49.0726355,17.333432 49.2242987,18.5818759 49.2242987,19.9332285 C49.2304392,22.0362369 48.9879261,23.6788561 48.5637133,24.8666349 Z" id="Fill-1"></path>
                    <path d="M39.9285057,14 L38.5309626,14 L38.5309626,25 L39.8983888,25 C41.0832592,25 41.9035369,24.8639144 42.4201976,24.5612673 C42.906148,24.2583185 43.3013768,23.7577287 43.5745801,23.0534632 C43.8481544,22.3488959 44,21.1746674 44,19.5681182 C44,17.4237896 43.6963088,15.9775408 43.0582161,15.1743039 C42.4201976,14.4019202 41.3871729,14 39.9285057,14 Z M19,21.9101632 L23.0170465,21.9101632 L21.0115275,14.667453 L19,21.9101632 Z" id="Fill-4"></path>
                </g>
            </g>
        </g>
    </g>
</svg>