<?xml version="1.0" encoding="UTF-8"?>
<svg width="24px" height="24px" viewBox="0 0 24 24" version="1.1" xmlns="http://www.w3.org/2000/svg" xmlns:xlink="http://www.w3.org/1999/xlink">
    <!-- Generator: Sketch 50.2 (55047) - http://www.bohemiancoding.com/sketch -->
    <title>账户设置-默认</title>
    <desc>Created with Sketch.</desc>
    <defs></defs>
    <g id="Page-1" stroke="none" stroke-width="1" fill="none" fill-rule="evenodd">
        <g id="后管系统首页" transform="translate(-1782.000000, -94.000000)" fill="#4A90E2">
            <path d="M1782.00001,105.960249 C1781.99966,105.11345 1782.08124,104.268557 1782.24342,103.437441 C1783.70328,103.268175 1784.98798,102.397192 1785.68401,101.105036 C1786.42295,99.7575633 1786.48752,98.1423839 1785.85826,96.7402967 C1787.13184,95.5025211 1788.66752,94.5660471 1790.35208,94 C1791.1525,95.2653612 1792.54398,96.0356766 1794.04307,96.0433572 C1795.54205,96.0509205 1796.94133,95.2946764 1797.75462,94.0374355 C1799.43871,94.6228307 1800.96946,95.5788872 1802.2334,96.8348675 C1801.64772,98.2168152 1801.72686,99.7902205 1802.44823,101.106531 C1803.12112,102.356678 1804.3471,103.215056 1805.7536,103.420937 C1806.11103,105.243873 1806.07926,107.121629 1805.66046,108.93152 C1804.29192,109.163755 1803.10688,110.012635 1802.44823,111.232411 C1801.7801,112.450018 1801.66,113.893234 1802.11767,115.204151 C1800.81288,116.465056 1799.23603,117.410706 1797.50822,117.968486 C1796.6742,116.907305 1795.39602,116.290074 1794.04492,116.296259 C1792.6938,116.302445 1791.42125,116.931227 1790.59698,118 C1788.87249,117.462916 1787.2939,116.539488 1785.98157,115.300246 C1786.47572,113.965701 1786.36607,112.482997 1785.68102,111.235401 C1785.00049,109.971623 1783.75593,109.108789 1782.3321,108.91352 C1782.1099,107.944887 1781.99852,106.954122 1782.00001,105.960249 Z M1793.99994,111.140918 C1796.08471,111.144583 1797.96613,109.893644 1798.7662,107.971887 C1799.56639,106.050158 1799.12762,103.836392 1797.65457,102.363655 C1796.18152,100.891006 1793.96473,100.449695 1792.03858,101.245661 C1790.11235,102.041628 1788.85654,103.918035 1788.85713,105.999296 C1788.85551,108.836685 1791.15776,111.138514 1793.99994,111.140918 Z" id="账户设置-默认"></path>
        </g>
    </g>
</svg>