<?xml version="1.0" encoding="UTF-8"?>
<svg width="24px" height="24px" viewBox="0 0 24 24" version="1.1" xmlns="http://www.w3.org/2000/svg" xmlns:xlink="http://www.w3.org/1999/xlink">
    <!-- Generator: Sketch 50.2 (55047) - http://www.bohemiancoding.com/sketch -->
    <title>消息-选中</title>
    <desc>Created with Sketch.</desc>
    <defs></defs>
    <g id="Page-1" stroke="none" stroke-width="1" fill="none" fill-rule="evenodd">
        <g id="后管系统首页" transform="translate(-1782.000000, -144.000000)" fill="#FFFFFF">
            <path d="M1800.00094,156.000015 C1799.17274,156.000015 1798.50073,155.32777 1798.50073,154.499807 C1798.50073,153.671637 1799.17274,152.999481 1800.00094,152.999481 C1800.8291,152.999481 1801.50111,153.671637 1801.50111,154.499807 C1801.50111,155.32777 1800.8291,156.000015 1800.00094,156.000015 Z M1794.00001,156.000015 C1793.17182,156.000015 1792.49969,155.32777 1792.49969,154.499807 C1792.49969,153.671637 1793.17182,152.999481 1794.00001,152.999481 C1794.82818,152.999481 1795.50019,153.671637 1795.50019,154.499807 C1795.50019,155.32777 1794.82818,156.000015 1794.00001,156.000015 Z M1788.00092,156.000015 C1787.17275,156.000015 1786.50071,155.32777 1786.50071,154.499807 C1786.50071,153.671637 1787.17078,152.999481 1788.00092,152.999481 C1788.83106,152.999481 1789.50113,153.671637 1789.50113,154.499807 C1789.50113,155.32777 1788.82909,156.000015 1788.00092,156.000015 Z M1794.00001,144 C1787.37286,144 1782,148.700854 1782,154.499807 C1782,157.814251 1783.75832,160.764706 1786.50071,162.688941 L1786.50071,168 L1791.75757,164.809517 C1792.48564,164.929414 1793.23386,164.999378 1794.00001,164.999378 C1800.62714,164.999378 1806,160.298671 1806,154.499807 C1806,148.700854 1800.62911,144 1794.00001,144 Z" id="消息-选中"></path>
        </g>
    </g>
</svg>