<?xml version="1.0" encoding="UTF-8"?>
<svg width="96px" height="96px" viewBox="0 0 96 96" version="1.1" xmlns="http://www.w3.org/2000/svg" xmlns:xlink="http://www.w3.org/1999/xlink">
    <!-- Generator: Sketch 50.2 (55047) - http://www.bohemiancoding.com/sketch -->
    <title>头像位置icon</title>
    <desc>Created with Sketch.</desc>
    <defs>
        <polygon id="path-1" points="0.00702439024 0.0936585366 95.9062244 0.0936585366 95.9062244 95.9998829 0.00702439024 95.9998829"></polygon>
    </defs>
    <g id="Page-1" stroke="none" stroke-width="1" fill="none" fill-rule="evenodd">
        <g id="后管系统订单-账户管理" transform="translate(-712.000000, -280.000000)">
            <g id="Group-4" transform="translate(712.000000, 280.000000)">
                <g id="头像位置icon">
                    <g id="Group-3">
                        <mask id="mask-2" fill="white">
                            <use xlink:href="#path-1"></use>
                        </mask>
                        <g id="Clip-2"></g>
                        <path d="M0,47.9534049 C0,74.4369951 21.4692293,95.9062244 47.9534049,95.9062244 C74.4369951,95.9062244 95.9062244,74.4369951 95.9062244,47.9534049 C95.9062244,21.4692293 74.4369951,0 47.9534049,0 C21.4692293,0 0,21.4692293 0,47.9534049 Z" id="Fill-1" fill="#EBEBEB" mask="url(#mask-2)"></path>
                    </g>
                    <path d="M77,84 C76.0888964,79.704844 74.3611802,72.4521396 74.3611802,72.4521396 C74.3611802,72.4521396 73.4410384,67.9500023 71.9760187,66.4148322 C69.4501185,63.768109 53.7303543,61.5357017 53.1108226,56.7792528 C52.9416781,55.4887398 52.8949608,53.2283111 52.9416781,52.6723579 C54.2282802,51.5046444 55.2704972,50.0071501 55.524038,49.5734077 C55.8340386,49.0367634 56.4722337,47.5204312 56.9701596,45.6366425 C57.7872418,45.5423353 58.5195756,44.0260031 59.0642188,42.3588501 C59.646541,40.5693686 59.2049574,38.995934 58.3787196,38.7044177 C58.942261,36.3308439 59.4209366,32.4501214 58.0311574,29.3889647 C57.402118,28.0041445 58.8482396,25.2161372 56.228318,22.1646349 C53.9838951,25.545918 47.3353746,20.1392088 42.2179587,22.7294183 C40.1142744,23.7941122 39.2315768,25.3762592 38.9124206,26.9210837 C37.2219139,28.2869483 36.8088536,30.0102618 36.5928744,31.0749556 C36.0110218,33.8344706 35.926156,36.2645581 36.6776228,38.779416 C35.9826158,39.2314076 35.6634596,40.7008806 36.1984776,42.3491957 C36.7432382,44.0163487 37.4754546,45.5234974 38.2925368,45.6269881 C38.7808376,47.5107768 39.4287752,49.0179255 39.7387758,49.5642243 C40.0019417,50.025517 41.1757417,51.7115079 42.5843017,52.8985303 L42.6401746,52.8985303 C42.6401746,53.8307703 42.5746766,55.7996827 42.4527187,56.7695984 C41.8327176,61.5168638 26.0382997,63.6646184 23.5875227,66.4051778 C22.2633589,67.8843051 18.741959,80.9291889 18,83.9903456 L77,83.9903456 L77,84 Z" id="Fill-4" fill="#FFFFFF"></path>
                </g>
            </g>
        </g>
    </g>
</svg>