<?xml version="1.0" encoding="UTF-8"?>
<svg width="18px" height="19px" viewBox="0 0 18 19" version="1.1" xmlns="http://www.w3.org/2000/svg" xmlns:xlink="http://www.w3.org/1999/xlink">
    <!-- Generator: Sketch 50.2 (55047) - http://www.bohemiancoding.com/sketch -->
    <title>折线图-时间选择icon</title>
    <desc>Created with Sketch.</desc>
    <defs></defs>
    <g id="Page-1" stroke="none" stroke-width="1" fill="none" fill-rule="evenodd">
        <g id="后管系统首页" transform="translate(-1166.000000, -1175.000000)" fill="#000000">
            <g id="订单统计" transform="translate(300.000000, 1073.000000)">
                <g id="Group-5" transform="translate(661.000000, 96.000000)">
                    <path d="M221.326145,7.73889011 L219.651387,7.73889011 L219.651387,6.9529239 C219.651387,6.42658742 219.216659,6 218.680562,6 C218.144397,6 217.709761,6.42667993 217.709761,6.9529239 L217.709761,7.73889011 L210.290239,7.73889011 L210.290239,6.9529239 C210.290239,6.42658742 209.855511,6 209.319438,6 C208.783341,6 208.348705,6.42667993 208.348705,6.9529239 L208.348705,7.73889011 L206.673855,7.73889011 C205.751021,7.73889011 205,8.4757103 205,9.38156967 L205,22.377187 C205,23.2831157 205.751021,24.0198666 206.673855,24.0198666 L221.326145,24.0198666 C222.248979,24.0198666 223,23.2831157 223,22.377187 L223,9.38156967 C223,8.4757103 222.248979,7.73889011 221.326145,7.73889011 Z M221.543775,22.377187 C221.543682,22.4948136 221.446107,22.5904691 221.326145,22.5904691 L206.673855,22.5904691 C206.554055,22.5904691 206.456318,22.4947211 206.456318,22.377187 L206.456318,12.0674399 L221.543775,12.0674399 L221.543775,22.377187 Z M208.513582,16.4537391 L210.596956,16.4537391 C210.86519,16.4537391 211.082357,16.2405264 211.082357,15.9771731 L211.082357,14.6294622 C211.082357,14.3661089 210.86519,14.1530812 210.596956,14.1530812 L208.513582,14.1530812 C208.245348,14.1530812 208.028273,14.3661089 208.028273,14.6294622 L208.028273,15.9771731 C208.028273,16.2405264 208.245348,16.4537391 208.513582,16.4537391 Z M212.958301,16.4537391 L215.041514,16.4537391 C215.309724,16.4537391 215.526822,16.2405264 215.526822,15.9771731 L215.526822,14.6294622 C215.526822,14.3661089 215.309724,14.1530812 215.041514,14.1530812 L212.958301,14.1530812 C212.689998,14.1530812 212.4729,14.3661089 212.4729,14.6294622 L212.4729,15.9771731 C212.4729,16.2405264 212.689998,16.4537391 212.958301,16.4537391 Z M217.403044,16.4537391 L219.485979,16.4537391 C219.754189,16.4537391 219.97138,16.2405264 219.97138,15.9771731 L219.97138,14.6294622 C219.97138,14.3661089 219.754374,14.1530812 219.485979,14.1530812 L217.403044,14.1530812 C217.13481,14.1530812 216.917735,14.3661089 216.917735,14.6294622 L216.917735,15.9771731 C216.917735,16.2405264 217.134741,16.4537391 217.403044,16.4537391 Z M208.513582,20.4144917 L210.597049,20.4144917 C210.865259,20.4144917 211.082357,20.201464 211.082357,19.9380413 L211.082357,18.5903998 C211.082357,18.3269771 210.865259,18.1139494 210.597049,18.1139494 L208.513582,18.1139494 C208.245348,18.1139494 208.028273,18.3269771 208.028273,18.5903998 L208.028273,19.9380413 C208.028273,20.201464 208.245348,20.4144917 208.513582,20.4144917 Z M212.958394,20.4144917 L215.041514,20.4144917 C215.309724,20.4144917 215.526822,20.201464 215.526822,19.9380413 L215.526822,18.5903998 C215.526822,18.3269771 215.309724,18.1139494 215.041514,18.1139494 L212.958301,18.1139494 C212.689998,18.1139494 212.4729,18.3269771 212.4729,18.5903998 L212.4729,19.9380413 C212.4729,20.201464 212.689998,20.4144917 212.958301,20.4144917 L212.958394,20.4144917 Z M217.403044,20.4144917 L219.485979,20.4144917 C219.754189,20.4144917 219.97138,20.201464 219.97138,19.9380413 L219.97138,18.5903998 C219.97138,18.3269771 219.754374,18.1139494 219.485979,18.1139494 L217.403044,18.1139494 C217.13481,18.1139494 216.917735,18.3269771 216.917735,18.5903998 L216.917735,19.9380413 C216.917735,20.201464 217.134741,20.4144917 217.403044,20.4144917 Z" id="折线图-时间选择icon"></path>
                </g>
            </g>
        </g>
    </g>
</svg>