<?xml version="1.0" encoding="UTF-8"?>
<svg width="75px" height="63px" viewBox="0 0 75 63" version="1.1" xmlns="http://www.w3.org/2000/svg" xmlns:xlink="http://www.w3.org/1999/xlink">
    <!-- Generator: Sketch 50.2 (55047) - http://www.bohemiancoding.com/sketch -->
    <title>首页统计-今日销售额icon</title>
    <desc>Created with Sketch.</desc>
    <defs></defs>
    <g id="Page-1" stroke="none" stroke-width="1" fill="none" fill-rule="evenodd" opacity="0.5">
        <g id="后管系统首页" transform="translate(-653.000000, -297.000000)" fill="#FFFFFF">
            <g id="数据显示" transform="translate(300.000000, 191.000000)">
                <g id="Group-6" transform="translate(237.000000, 0.000000)">
                    <g id="Oval-3-+-Oval-3-Mask">
                        <path d="M139.843928,123.121741 L156.237073,123.121741 C161.308151,123.121741 165.177519,112.080879 165.177519,112.080879 C165.177519,108.773738 164.847608,106.272266 159.216036,106.095134 C153.584464,105.916633 152.236177,110.04714 148.188308,110.04714 C144.03965,110.04714 141.965322,106.800289 136.861772,106.095134 C131.759591,105.385418 130.900197,108.772005 130.900197,112.080879 C130.902022,112.080879 134.771025,123.121741 139.843928,123.121741 Z M167.979441,153.105653 L167.979441,154.730037 C167.979441,155.628286 168.705575,156.35442 169.603824,156.35442 L187.471583,156.35442 C188.369833,156.35442 189.095967,155.628286 189.095967,154.730037 L189.095967,153.105653 C189.095967,152.207495 188.369833,151.481361 187.471583,151.481361 L169.603824,151.481361 C168.705575,151.481361 167.979441,152.207495 167.979441,153.105653 Z M189.095967,159.603095 L171.228116,159.603095 C170.329867,159.603095 169.603824,160.329229 169.603824,161.227387 L169.603824,162.85177 C169.603824,163.75002 170.329867,164.476153 171.228116,164.476153 L189.095967,164.476153 C189.994125,164.476153 190.720259,163.75002 190.720259,162.85177 L190.720259,161.227387 C190.720259,160.329229 189.994125,159.603095 189.095967,159.603095 Z M167.979441,166.017808 C166.126026,165.644024 164.730766,164.003314 164.730766,162.039807 C164.730766,160.075843 166.126026,158.438326 167.979441,158.06144 L167.979441,157.978712 L166.736686,157.978712 L166.736686,157.879656 C164.66555,157.429711 163.106383,155.462555 163.106383,153.105653 C163.106383,150.748843 164.66555,148.781687 166.736686,148.331742 L166.736686,148.232686 L177.225264,148.232686 C173.812317,137.955354 167.659472,126.534323 157.132038,126.534323 L139.843928,126.534323 C120.700943,126.534323 116,164.282968 116,164.282968 C116,169.241947 120.003996,174.222179 124.941906,174.222179 L162.716637,174.222179 C161.954475,173.359593 161.482091,172.225836 161.482091,170.973504 C161.482091,168.616602 163.124169,166.649538 165.305762,166.199501 L165.305762,166.100445 L167.979441,166.100445 L167.979441,166.017808 Z M159.092353,155.545557 C160.247454,155.545557 161.181367,156.48768 161.181367,157.645608 C161.181367,158.800709 160.247454,159.74274 159.092353,159.74274 L150.616537,159.74274 L150.616537,165.244335 C150.616537,166.402629 149.682624,167.341467 148.529347,167.341467 C147.37598,167.341467 146.442158,166.402629 146.442158,165.244335 L146.442158,159.74274 L137.912436,159.74274 C136.759159,159.74274 135.825246,158.800709 135.825246,157.645608 C135.825246,156.48768 136.759159,155.545557 137.912436,155.545557 L146.443617,155.545557 L146.443617,152.886199 L137.912436,152.886199 C136.759159,152.886199 135.825246,151.94736 135.825246,150.789432 C135.825246,149.631139 136.759159,148.689108 137.912436,148.689108 L143.679092,148.689108 L137.774615,138.158391 C137.197704,137.152968 137.540476,135.872817 138.537781,135.294537 C139.536819,134.716257 140.811954,135.057569 141.388866,136.059526 L148.498336,148.690476 L148.857435,148.690476 L155.965536,136.059526 C156.542357,135.059029 157.818951,134.716257 158.816256,135.294537 C159.815294,135.872817 160.158067,137.154428 159.582979,138.158391 L153.678503,148.689108 L159.092353,148.689108 C160.247454,148.689108 161.181367,149.631139 161.181367,150.789432 C161.181367,151.94736 160.247454,152.886199 159.092353,152.886199 L150.616537,152.886199 L150.616537,155.545557 L159.092353,155.545557 Z M185.8472,167.724828 L167.979441,167.724828 C167.081192,167.724828 166.355058,168.450962 166.355058,169.34912 L166.355058,170.973504 C166.355058,171.871753 167.081192,172.597887 167.979441,172.597887 L185.8472,172.597887 C186.74545,172.597887 187.471583,171.871753 187.471583,170.973504 L187.471583,169.34912 C187.471583,168.450962 186.74545,167.724828 185.8472,167.724828 Z" id="首页统计-今日销售额icon"></path>
                    </g>
                </g>
            </g>
        </g>
    </g>
</svg>