<?xml version="1.0" encoding="UTF-8"?>
<svg width="69px" height="63px" viewBox="0 0 69 63" version="1.1" xmlns="http://www.w3.org/2000/svg" xmlns:xlink="http://www.w3.org/1999/xlink">
    <!-- Generator: Sketch 50.2 (55047) - http://www.bohemiancoding.com/sketch -->
    <title>首页统计-今日订单icon</title>
    <desc>Created with Sketch.</desc>
    <defs></defs>
    <g id="Page-1" stroke="none" stroke-width="1" fill="none" fill-rule="evenodd" opacity="0.5">
        <g id="后管系统首页" transform="translate(-422.000000, -297.000000)" fill="#FFFFFF">
            <g id="数据显示" transform="translate(300.000000, 191.000000)">
                <g id="Group-6">
                    <g id="Oval-3-+-Oval-3-Mask">
                        <path d="M179.063442,193.496 L133.412762,193.496 C127.109451,193.495508 122,188.385566 122,182.082255 L122,128.825033 C122,125.798416 123.202462,122.895671 125.342931,120.755202 C127.4834,118.615224 130.386145,117.413254 133.412762,117.413254 L135.7587,117.413254 C135.476917,118.337743 135.327117,119.297869 135.31323,120.26414 C135.31323,126.042718 139.997365,130.726853 145.775574,130.727344 L166.697804,130.727344 C172.47589,130.727344 177.160025,126.04321 177.160025,120.265123 C177.14663,119.298729 176.996338,118.338726 176.714555,117.414114 L179.061476,117.414114 C182.088093,117.414114 184.990838,118.616208 187.130815,120.756185 C189.270793,122.896162 190.473255,125.798416 190.473255,128.825033 L190.473255,182.084098 C190.473747,185.110223 189.272267,188.012968 187.13229,190.153437 C184.992313,192.293538 182.089936,193.496 179.063442,193.496 Z M140.07036,176.377041 L162.896376,176.377041 C164.470822,176.377041 165.747263,175.1006 165.747263,173.526155 C165.747263,171.951587 164.470822,170.675268 162.896376,170.675268 L140.07036,170.675268 C138.495792,170.675268 137.219474,171.951587 137.219474,173.526155 C137.219474,175.1006 138.495792,176.377041 140.07036,176.377041 Z M172.404861,140.236812 L140.07036,140.236812 C138.495792,140.236812 137.219474,141.513745 137.219474,143.08819 C137.219474,144.662758 138.495792,145.939076 140.07036,145.939076 L172.404861,145.939076 C173.979306,145.939076 175.255747,144.662758 175.255747,143.08819 C175.255747,141.513745 173.979306,140.236812 172.404861,140.236812 Z M172.404861,155.45432 L140.07036,155.45432 C138.495792,155.45432 137.219474,156.731252 137.219474,158.305698 C137.219474,159.880266 138.495792,161.156707 140.07036,161.156707 L172.404861,161.156707 C173.979306,161.156707 175.255747,159.880266 175.255747,158.305698 C175.255747,156.731252 173.979306,155.45432 172.404861,155.45432 Z M166.703088,126.921738 L145.775574,126.921738 C142.098509,126.921738 139.117976,123.941205 139.117976,120.26414 C139.117976,116.587567 142.098509,113.606542 145.775574,113.606542 L146.918067,113.606542 C147.822894,109.179244 151.717839,106 156.236935,106 C160.755416,106 164.650361,109.179244 165.555803,113.606542 L166.697804,113.606542 C170.374746,113.606542 173.355279,116.587567 173.355279,120.26414 C173.355279,123.941205 170.374746,126.921738 166.697804,126.921738 L166.703088,126.921738 Z M156.236935,111.706074 C154.697881,111.706074 153.310103,112.632529 152.720608,114.05447 C152.131604,115.476288 152.457135,117.11316 153.545312,118.201459 C154.633611,119.289636 156.270483,119.615167 157.692301,119.025672 C159.113751,118.436668 160.040697,117.04889 160.040206,115.509836 C160.040206,114.501292 159.639344,113.533546 158.926469,112.820302 C158.213225,112.106936 157.245479,111.706074 156.236935,111.706074 Z" id="首页统计-今日订单icon"></path>
                    </g>
                </g>
            </g>
        </g>
    </g>
</svg>