<?xml version="1.0" encoding="UTF-8"?>
<svg width="21px" height="18px" viewBox="0 0 21 18" version="1.1" xmlns="http://www.w3.org/2000/svg" xmlns:xlink="http://www.w3.org/1999/xlink">
    <!-- Generator: Sketch 50.2 (55047) - http://www.bohemiancoding.com/sketch -->
    <title>图片库选择icon</title>
    <desc>Created with Sketch.</desc>
    <defs></defs>
    <g id="Page-1" stroke="none" stroke-width="1" fill="none" fill-rule="evenodd">
        <g id="后管系统订单-添加商品2改-弹窗" transform="translate(-489.000000, -476.000000)" fill="#4A90E2">
            <g id="图片库弹窗" transform="translate(361.000000, 336.000000)">
                <g id="Group-10" transform="translate(31.000000, 134.000000)">
                    <g id="banner@2x">
                        <path d="M112.462753,21.0741275 L112.462753,14.097607 L114.189023,12.047756 L114.189023,20.8677713 C114.189023,22.5902593 112.778744,23.998 111.057525,23.998 L100.131498,23.998 C98.4091093,23.998 97,22.5902593 97,20.8677713 L97,10.4794442 C97,8.75822523 98.4091093,7.34921548 100.131498,7.35175356 L111.057525,7.35175356 C111.130134,7.35175356 111.202744,7.35426676 111.274109,7.36058709 L109.659887,9.02193711 L99.9786902,9.02193711 C99.2881821,9.02193711 98.7237321,9.58511799 98.7237321,10.2756261 L98.7237321,21.0741275 C98.7237321,21.7633914 99.2881821,22.3303545 99.9786902,22.3303545 L111.209163,22.3303545 C111.899672,22.3303545 112.462753,21.7633914 112.462753,21.0741275 Z M116.872126,6 L117.355009,7.09951282 C112.167166,11.8693934 107.922171,18.5783451 106.581863,22.011825 L98.79129,14.0912867 L100.781272,12.4885614 L105.28871,16.0176176 C107.13096,13.8275997 111.225686,9.45893542 116.872126,6 Z" id="图片库选择icon"></path>
                    </g>
                </g>
            </g>
        </g>
    </g>
</svg>