<?xml version="1.0" encoding="UTF-8"?>
<svg width="85px" height="77px" viewBox="0 0 85 77" version="1.1" xmlns="http://www.w3.org/2000/svg" xmlns:xlink="http://www.w3.org/1999/xlink">
    <!-- Generator: Sketch 50.2 (55047) - http://www.bohemiancoding.com/sketch -->
    <title>图片占位符icon</title>
    <desc>Created with Sketch.</desc>
    <defs></defs>
    <g id="Page-1" stroke="none" stroke-width="1" fill="none" fill-rule="evenodd">
        <g id="后管系统订单-添加商品2改" transform="translate(-363.000000, -401.000000)" fill="#C1CAD5">
            <g id="待处理事务" transform="translate(300.000000, 276.000000)">
                <g id="Group" transform="translate(31.000000, 89.000000)">
                    <g id="Group-10">
                        <g id="Group-5" transform="translate(11.000000, 36.000000)">
                            <path d="M29.4686429,5 L96.5309288,5 C98.4580122,5 100,6.53312037 100,8.44978704 L100,35.6666667 C96.5309288,32.9834398 89.9789525,28.7665602 84.9684288,28.7665602 C77.6457263,28.7665602 71.09375,45.6330139 62.9997859,45.6330139 C56.8333333,45.25 48.3538455,38.3498935 38.7184288,39.5 C34.8642622,40.2665602 29.4686429,46.4001065 26,51 L26,8.44978704 C26,6.53312037 27.5415596,5 29.4686429,5 Z M46,33 C42.8570649,33 40.1072013,31.8213311 38.1429351,29.8570649 C36.1786689,27.8927987 35,24.7498636 35,22 C35,19.2501364 36.1786689,16.1072013 38.1429351,14.1429351 C40.1072013,12.1786689 42.8570649,11 46,11 C48.7498636,11 51.4997272,12.1786689 53.8570649,14.1429351 C55.8213311,16.1072013 57,19.2501364 57,22 C57,24.7498636 55.8213311,27.8927987 53.8570649,29.8570649 C51.4997272,31.8213311 48.7498636,33 46,33 Z M99.0453472,0 L27.9546528,0 C24.0910164,0 21,3.08010694 21,6.93010694 L21,70.0698931 C21,73.9198931 24.0910164,77 27.9546528,77 L99.0453472,77 C102.908984,77 106,73.9198931 106,70.0698931 L106,6.93010694 C106,3.08010694 102.908984,0 99.0453472,0 Z" id="图片占位符icon"></path>
                        </g>
                    </g>
                </g>
            </g>
        </g>
    </g>
</svg>