<?xml version="1.0" encoding="UTF-8"?>
<svg width="24px" height="26px" viewBox="0 0 24 26" version="1.1" xmlns="http://www.w3.org/2000/svg" xmlns:xlink="http://www.w3.org/1999/xlink">
    <!-- Generator: Sketch 50.2 (55047) - http://www.bohemiancoding.com/sketch -->
    <title>退款及退货icon</title>
    <desc>Created with Sketch.</desc>
    <defs></defs>
    <g id="Page-1" stroke="none" stroke-width="1" fill="none" fill-rule="evenodd">
        <g id="后管系统首页" transform="translate(-21.000000, -337.000000)" fill="#FFFFFF">
            <g id="Group-9" transform="translate(21.000000, 337.000000)">
                <path d="M11.7996119,6.84790459 L11.7996119,5.20507018 C11.7996119,4.89524155 12.0340448,4.61604032 12.355597,4.61604032 L15.9189903,4.61604032 C16.2114725,4.61604032 16.4749452,4.86486807 16.4749452,5.20507018 L16.5039849,5.20507018 L16.5039849,6.84790459 L11.7996119,6.84790459 Z M16.4725881,9.23198542 C16.4725881,9.5723145 16.2089946,9.85148399 15.9165124,9.85148399 L11.7706024,9.85148399 L11.7706024,7.74412881 L16.4725881,7.74412881 L16.4725881,9.23198542 Z M23.6862522,19.2384472 L12.2662417,25.931374 C12.0921243,26.0228753 11.8866101,26.0228753 11.7101659,25.931374 L0.292512402,19.2384472 C0.118515872,19.1139699 0,18.8956426 0,18.6798226 L0,0.619530305 C0,0.279328187 0.26347269,0 0.584994586,0 L23.4251365,0 C23.7466887,0 24.0101613,0.279328187 23.9787646,0.619530305 L23.9787646,18.6798226 C23.9787646,18.9286186 23.8627266,19.1139699 23.6862522,19.2384472 Z M7.24270378,3.4708614 L4.90737904,3.4708614 L5.63748153,6.28924822 L7.97525395,6.28924822 L7.24270378,3.4708614 Z M19.0132759,11.369841 L16.9390971,11.369841 C16.8520988,11.804147 16.7046641,12.2078256 16.5595864,12.6089969 C16.2380343,12.0198718 15.94803,11.4003415 15.624,10.7503425 L17.7562885,10.7503425 C18.3122434,10.7503425 18.7498032,10.285663 18.7498032,9.69666489 L18.7498032,4.74039072 C18.7498032,4.15139259 18.3122434,3.68671312 17.7562885,3.68671312 L10.4555053,3.68671312 C9.90190743,3.68671312 9.46196032,4.15139259 9.46196032,4.74039072 L9.46196032,15.4603597 C9.46196032,16.0493896 9.89955041,16.5140373 10.4555053,16.5140373 L13.5813085,16.5140373 L13.5813085,15.6152105 L12.3266781,15.6152105 C12.0340448,15.6152105 11.7706024,15.3663828 11.7706024,15.0261807 L11.7706024,10.7503425 L13.2307469,10.7503425 C14.195373,12.8881981 15.3339655,14.7773847 16.6756244,16.5114348 L19.0423156,16.5114348 C18.6047558,15.8919362 18.1962054,15.3358824 17.8167249,14.7468842 C18.3146004,13.7235484 18.691754,12.51502 19.0132759,11.369841 Z M19.0423156,17.5347389 L10.8060971,17.5347389 C9.2588032,17.5347389 8.52873093,16.6993886 8.2073299,15.6152105 L8.2073299,8.27228474 C8.2073299,7.7162309 7.76973981,7.21857541 7.21366407,7.21857541 L4.90737904,7.21857541 L4.90737904,8.1174339 L5.37400884,8.1174339 C5.66652125,8.1174339 5.9276067,8.39663514 5.9276067,8.70643203 L5.9276067,15.1505311 C5.9276067,16.38956 5.54812625,17.4737697 4.99202028,18.4335974 L7.4457098,18.4335974 C7.68026365,18.0628948 7.85438106,17.6287158 7.99933787,17.1335676 C8.3789392,17.7530662 9.10901147,18.4030969 10.6852242,18.4030969 L19.0374807,18.4030969 L19.0374807,17.5347389 L19.0423156,17.5347389 Z" id="退款及退货icon"></path>
            </g>
        </g>
    </g>
</svg>