<?xml version="1.0" encoding="UTF-8"?>
<svg width="20px" height="16px" viewBox="0 0 20 16" version="1.1" xmlns="http://www.w3.org/2000/svg" xmlns:xlink="http://www.w3.org/1999/xlink">
    <!-- Generator: Sketch 50.2 (55047) - http://www.bohemiancoding.com/sketch -->
    <title>刷新icon</title>
    <desc>Created with Sketch.</desc>
    <defs></defs>
    <g id="Page-1" stroke="none" stroke-width="1" fill="none" fill-rule="evenodd">
        <g id="后管系统首页" transform="translate(-1166.000000, -115.000000)" fill="#4A90E2">
            <g id="面包屑-刷新" transform="translate(271.000000, 105.000000)">
                <g id="Group-8" transform="translate(895.000000, 8.000000)">
                    <path d="M9.99535603,16.7351914 C6.27716848,16.7316953 3.26370825,13.7186843 3.25966528,10.0005749 L3.25966528,9.99309443 L4.85931542,9.97493035 L2.95784855,6.15916457 L0.398334116,9.99842646 L1.99798425,9.99842646 C1.99478112,14.4860484 5.81269534,17.9999975 9.99535603,17.9999975 C11.8074869,18.0014428 13.5660825,17.3852898 14.9810254,16.2531792 C15.2410257,16.031011 15.2777249,15.6426707 15.0641114,15.3757173 C14.8504002,15.1087639 14.4633686,15.0595451 14.1896964,15.2645453 C13.0002811,16.2182378 11.5210022,16.737418 9.99643025,16.7362657 M9.99535603,2 C8.18025644,2 6.5058992,2.6079108 5.16007745,3.63170095 C5.01548746,3.74269716 4.92599517,3.91078328 4.91454985,4.09265847 C4.90312406,4.2745532 4.9708585,4.45254167 5.1003313,4.58080352 C5.32365185,4.80449517 5.67833972,4.82775691 5.92896499,4.63519811 C7.09672014,3.74576357 8.52426072,3.26425916 9.9921529,3.26480603 C13.481766,3.26976697 16.3916909,5.93502371 16.7022967,9.41080865 C16.7299921,9.73926603 16.6980194,10.0005749 16.6980194,10.0005749 L15.1164357,10.0133093 L17.0360862,13.8386844 C17.2024731,13.8376298 19.5945264,9.99737178 19.5945264,9.99737178 L17.9927278,9.99737178 C18.0001302,9.5814143 17.9724348,9.38946097 17.9649543,9.30949995 C17.6130204,5.22066748 14.1726847,2.00212891 9.99643025,2" id="刷新icon"></path>
                </g>
            </g>
        </g>
    </g>
</svg>