<?xml version="1.0" encoding="UTF-8"?>
<svg width="60px" height="60px" viewBox="0 0 60 60" version="1.1" xmlns="http://www.w3.org/2000/svg" xmlns:xlink="http://www.w3.org/1999/xlink">
    <!-- Generator: Sketch 50.2 (55047) - http://www.bohemiancoding.com/sketch -->
    <title>快捷入口-添加商品icon</title>
    <desc>Created with Sketch.</desc>
    <defs></defs>
    <g id="Page-1" stroke="none" stroke-width="1" fill="none" fill-rule="evenodd">
        <g id="后管系统首页" transform="translate(-329.000000, -695.000000)" fill="#4A90E2">
            <g id="运营快捷入口" transform="translate(299.000000, 601.000000)">
                <path d="M36.4286462,104.714271 L41.7857815,98.2856246 L78.2142185,98.2856246 L83.5713538,104.714271 L36.4286462,104.714271 Z M68.5714585,134.714062 L68.5714585,143.285729 L51.4285415,143.285729 L51.4285415,134.714062 L38.5712492,134.714062 L58.5277504,113.915653 C59.340026,113.067133 60.6642429,113.069142 61.4721659,113.911384 L81.4283323,134.714062 L68.5714585,134.714062 Z M88.8084559,105.070018 L82.6198764,95.7872743 C81.9642969,94.8037377 80.4771896,94 79.3027214,94 L40.6972786,94 C39.5463315,94 38.0379631,94.801394 37.3801236,95.7872743 L31.1914604,105.070018 C30.5355461,106.053555 30,107.819233 30,109.004164 L30,149.733628 C30,152.092776 31.9114929,154 34.2663724,154 L85.7336276,154 C88.071515,154 90,152.090767 90,149.733628 L90,109.004164 C90,107.797972 89.4663791,106.055815 88.8084559,105.070018 Z" id="快捷入口-添加商品icon"></path>
            </g>
        </g>
    </g>
</svg>