<?xml version="1.0" encoding="UTF-8"?>
<svg width="21px" height="26px" viewBox="0 0 21 26" version="1.1" xmlns="http://www.w3.org/2000/svg" xmlns:xlink="http://www.w3.org/1999/xlink">
    <!-- Generator: Sketch 50.2 (55047) - http://www.bohemiancoding.com/sketch -->
    <title>顶部-用户icon</title>
    <desc>Created with Sketch.</desc>
    <defs></defs>
    <g id="Page-1" stroke="none" stroke-width="1" fill="none" fill-rule="evenodd">
        <g id="后管系统首页" transform="translate(-1816.000000, -27.000000)" fill="#4A90E2">
            <path d="M1830.57814,40.5369046 C1829.27661,41.3178481 1827.84473,41.8385618 1826.15268,41.8385618 C1824.59073,41.8385618 1823.02875,41.3178481 1821.72712,40.5369046 C1818.34286,42.2289541 1816,45.7434064 1816,49.778477 C1816,54.073841 1836.43546,54.073841 1836.43546,49.778477 C1836.43546,45.7434064 1834.09259,42.2289541 1830.57814,40.5369046 M1819.38423,33.8986784 C1819.38423,30.1239328 1822.37793,27 1826.28278,27 C1830.18775,27 1833.18146,30.1239328 1833.18146,33.8986784 C1833.18146,37.6732969 1830.05752,40.7972297 1826.28278,40.7972297 C1822.50816,40.7972297 1819.38423,37.6732969 1819.38423,33.8986784" id="顶部-用户icon"></path>
        </g>
    </g>
</svg>