<?xml version="1.0" encoding="UTF-8"?>
<svg width="26px" height="21px" viewBox="0 0 26 21" version="1.1" xmlns="http://www.w3.org/2000/svg" xmlns:xlink="http://www.w3.org/1999/xlink">
    <!-- Generator: Sketch 50.2 (55047) - http://www.bohemiancoding.com/sketch -->
    <title>箭头</title>
    <desc>Created with Sketch.</desc>
    <defs></defs>
    <g id="Page-1" stroke="none" stroke-width="1" fill="none" fill-rule="evenodd">
        <g id="后管系统订单-添加物流模板-选择快递-添加地区" transform="translate(-782.000000, -546.000000)" fill="#4A90E2">
            <g id="图片库弹窗" transform="translate(360.000000, 312.000000)">
                <g id="Group-4" transform="translate(178.000000, 114.000000)">
                    <g id="Group-10">
                        <g id="东城区-+-Fill-1-Mask" transform="translate(75.000000, 0.000000)">
                            <path d="M173.926745,127.986828 L176.949635,127.986828 L176.949635,140.453125 C176.949635,141.827125 178.07381,142.951413 179.44796,142.951413 L184.519355,142.951413 C185.893505,142.951413 187.017642,141.827125 187.017642,140.453125 L187.017642,127.986828 L190.06556,127.986828 C191.789383,127.986828 192.638818,126.23794 191.43956,125.238677 L183.370152,118.468337 C182.620715,117.843888 181.396618,117.843888 180.64703,118.468337 L172.577622,125.238677 C171.353525,126.23794 172.202922,127.986828 173.926745,127.986828 Z" id="箭头" transform="translate(182.000000, 130.475706) rotate(-270.000000) translate(-182.000000, -130.475706) "></path>
                        </g>
                    </g>
                </g>
            </g>
        </g>
    </g>
</svg>