<?xml version="1.0" encoding="UTF-8"?>
<svg width="16px" height="16px" viewBox="0 0 16 16" version="1.1" xmlns="http://www.w3.org/2000/svg" xmlns:xlink="http://www.w3.org/1999/xlink">
    <!-- Generator: Sketch 50.2 (55047) - http://www.bohemiancoding.com/sketch -->
    <title>编辑icon</title>
    <desc>Created with Sketch.</desc>
    <defs></defs>
    <g id="Page-1" stroke="none" stroke-width="1" fill="none" fill-rule="evenodd">
        <g id="后管系统订单-添加商品2" transform="translate(-654.000000, -364.000000)" fill="#4A90E2">
            <g id="待处理事务" transform="translate(300.000000, 276.000000)">
                <g id="Group" transform="translate(123.000000, 85.000000)">
                    <g id="Group-10">
                        <path d="M246.770794,5.43631384 L245.110658,7.09197589 L242.8964,4.88422947 L244.557167,3.22856742 C244.862775,2.92381086 245.358462,2.92381086 245.663971,3.22856742 L246.770794,4.33259824 C247.076402,4.63727599 247.076402,5.13157698 246.770794,5.43631384 Z M235.143593,12.610613 L237.357772,14.8185958 L234.406801,15.5533883 L235.143593,12.610613 Z M244.557167,7.64368593 L237.915636,14.2665706 L235.702009,12.0591985 L242.342989,5.43631384 L244.557167,7.64368593 Z M232.722491,5.79455892 L232.722491,17.2775315 L244.205616,17.2775315 L244.205616,8.66530698 L245.928186,7.51702746 L245.928186,18.425811 C245.928186,18.859866 245.787952,19 245.353911,19 L231.786124,19 C231.352083,19 231,18.6484533 231,18.2144968 L231,4.6462794 C231,4.21230322 231.139604,4.07209038 231.574197,4.07209038 L242.483125,4.07209038 L240.760732,5.79455892 L232.722491,5.79455892 Z" id="编辑icon"></path>
                    </g>
                </g>
            </g>
        </g>
    </g>
</svg>