<?xml version="1.0" encoding="UTF-8"?>
<svg width="63px" height="61px" viewBox="0 0 63 61" version="1.1" xmlns="http://www.w3.org/2000/svg" xmlns:xlink="http://www.w3.org/1999/xlink">
    <!-- Generator: Sketch 50.2 (55047) - http://www.bohemiancoding.com/sketch -->
    <title>快捷入口-推荐管理icon</title>
    <desc>Created with Sketch.</desc>
    <defs></defs>
    <g id="Page-1" stroke="none" stroke-width="1" fill="none" fill-rule="evenodd">
        <g id="后管系统首页" transform="translate(-930.000000, -695.000000)" fill="#4A90E2">
            <g id="运营快捷入口" transform="translate(299.000000, 601.000000)">
                <path d="M641.727929,150.305545 L645.446465,150.305545 L645.446465,121.557044 L641.727929,121.557044 L641.727929,150.305545 Z M664.736317,94 C666.441165,94 667.955397,94.5275887 669.279189,95.5826784 C670.603068,96.6332986 671.455448,97.9913574 671.836504,99.6558034 L672.119316,100.859179 C672.400025,102.491812 672.540335,104.074402 672.540335,105.606425 C672.540335,108.666878 672.03676,111.655554 671.03031,114.571577 L670.831719,115.14912 L686.698204,115.221423 C687.869329,115.257705 688.982611,115.588368 690.037438,116.214551 C691.092527,116.839946 691.942892,117.672168 692.588531,118.71122 C693.003415,119.371582 693.308488,120.095308 693.491303,120.853213 C693.675433,121.611556 693.738095,122.391721 693.677887,123.193796 L693.629949,123.909634 C693.625829,123.941798 693.441261,125.013013 693.07598,127.122842 C692.622797,129.674022 692.161639,132.120737 691.692243,134.463336 C690.200009,141.908208 688.914515,146.916007 687.8355,149.487344 L687.354097,150.293538 C687.145691,150.750928 686.822477,151.214102 686.385332,151.68341 C685.952218,152.149038 685.464769,152.556035 684.923158,152.904927 C683.864299,153.574579 682.712982,153.951779 681.469643,154.036 L633.509026,154.017859 C632.794853,153.998052 632.197504,153.777552 631.716189,153.356094 C631.238642,152.930956 631,152.413621 631,151.803914 L631.023926,120.064809 C631.023926,119.443096 631.244777,118.911827 631.686041,118.470563 C632.126954,118.029299 632.658662,117.808798 633.280375,117.808798 L644.627914,117.802663 C645.466622,117.802663 646.587441,117.351409 647.991423,116.448987 C649.435369,115.522288 650.837598,114.330919 652.197409,112.874967 C653.713657,111.254341 654.925183,109.561763 655.831374,107.796707 C656.870338,105.775131 657.416068,103.823491 657.468126,101.942313 C657.452,101.777639 657.443762,101.565376 657.443762,101.304562 C657.443762,99.2908732 658.155831,97.5699 659.57997,96.1419926 C661.003759,94.7140852 662.722716,94 664.736317,94 Z" id="快捷入口-推荐管理icon"></path>
            </g>
        </g>
    </g>
</svg>