<?xml version="1.0" encoding="UTF-8"?>
<svg width="61px" height="61px" viewBox="0 0 61 61" version="1.1" xmlns="http://www.w3.org/2000/svg" xmlns:xlink="http://www.w3.org/1999/xlink">
    <!-- Generator: Sketch 50.2 (55047) - http://www.bohemiancoding.com/sketch -->
    <title>快捷入口-用户管理icon</title>
    <desc>Created with Sketch.</desc>
    <defs></defs>
    <g id="Page-1" stroke="none" stroke-width="1" fill="none" fill-rule="evenodd">
        <g id="后管系统首页" transform="translate(-529.000000, -695.000000)" fill="#4A90E2">
            <g id="运营快捷入口" transform="translate(299.000000, 601.000000)">
                <path d="M277.259494,125.709646 C274.210713,127.538974 270.856585,128.758725 266.893028,128.758725 C263.234223,128.758725 259.575343,127.538974 256.526339,125.709646 C248.598853,129.673203 243.110793,137.905664 243.110793,147.357652 C243.110793,157.419367 290.980014,157.419367 290.980014,147.357652 C290.980014,137.905664 285.491955,129.673203 277.259494,125.709646 M251.038205,110.159872 C251.038205,101.317685 258.050841,94 267.19778,94 C276.345016,94 283.357652,101.317685 283.357652,110.159872 C283.357652,119.001762 276.039967,126.319447 267.19778,126.319447 C258.35589,126.319447 251.038205,119.001762 251.038205,110.159872 M240.366764,148.272428 C240.366764,148.577179 240.366764,148.882154 240.671441,149.186906 C234.573581,148.272428 230,146.442876 230,143.393797 C230,135.161634 234.878333,128.148998 241.586217,124.79487 C244.025271,126.624422 247.07435,127.538974 250.123429,127.538974 C244.025271,132.417605 240.366764,140.039967 240.366764,148.272428 M248.294175,110.159872 C248.294175,106.196018 249.513703,102.232461 251.952683,99.183382 L250.733156,99.183382 C243.415545,99.183382 237.317685,104.97649 237.317685,112.294175 C237.317685,119.611488 243.110793,125.709646 250.428479,125.709646 C251.952683,125.709646 253.782235,125.404671 255.001762,124.79487 C251.038205,121.441114 248.294175,115.952683 248.294175,110.159872" id="快捷入口-用户管理icon"></path>
            </g>
        </g>
    </g>
</svg>