<?xml version="1.0" encoding="UTF-8"?>
<svg width="25px" height="26px" viewBox="0 0 25 26" version="1.1" xmlns="http://www.w3.org/2000/svg" xmlns:xlink="http://www.w3.org/1999/xlink">
    <!-- Generator: Sketch 50.2 (55047) - http://www.bohemiancoding.com/sketch -->
    <title>订单管理icon</title>
    <desc>Created with Sketch.</desc>
    <defs></defs>
    <g id="Page-1" stroke="none" stroke-width="1" fill="none" fill-rule="evenodd">
        <g id="后管系统首页" transform="translate(-21.000000, -105.000000)" fill="#FFFFFF">
            <g id="左导航" transform="translate(0.000000, 80.000000)">
                <g id="Group-2" transform="translate(21.000000, 8.000000)">
                    <path d="M15.1421113,17 L9.31005872,17 C8.59466118,17 8.02277186,17.6219971 8.02277186,18.3910665 C8.02277186,19.1617165 8.59567657,19.785625 9.31005872,19.785625 L15.1782516,19.785625 C15.8575088,19.785625 16.4303007,19.1617165 16.4303007,18.3910665 C16.4304135,17.6219971 15.8584114,17 15.1421113,17 Z M21.4747503,17.9284191 L18.5705138,17.9284191 C18.6000353,18.0807847 18.6170713,18.2349882 18.6170713,18.3909194 C18.6179362,19.5619104 17.749027,20.7143382 16.7152864,20.7143382 L7.79303083,20.7143382 C6.70506096,20.7143382 5.8349483,19.5619104 5.8349483,18.3910665 C5.8360013,18.2349882 5.85303726,18.0807847 5.88255874,17.9284191 L2.94319732,17.9284191 C0.580426101,17.9284191 0,19.2376971 0,21.1264421 L0,39.8355747 C0,41.8644813 0.831189431,43 3.12168004,43 L21.2961172,43 C23.5866454,43 24.7,42.1097366 24.7,39.8366039 L24.7,21.1264421 C24.7001504,19.2378441 23.6577226,17.9285662 21.4747503,17.9285662 L21.4747503,17.9284191 Z M18.4908999,36.4007878 L5.86153644,36.4007878 C5.39599965,36.4007878 4.93136544,35.8426409 4.93136544,35.3869042 C4.93136544,34.9327114 5.32462161,34.5435819 5.79015839,34.5435819 L18.3834943,34.5435819 C18.8488807,34.5435819 19.2421369,34.8972391 19.2774122,35.3869042 C19.2774122,35.8427879 18.9562486,36.4007878 18.4908999,36.4007878 Z M18.5423086,31.44694 L5.91268193,31.44694 C5.44714514,31.44694 5.15068933,30.9577527 5.15068933,30.5016853 C5.15068933,30.0458016 5.54424636,29.5899179 6.00963272,29.5899179 L18.6029687,29.5899179 C19.0685054,29.5899179 19.4617616,30.0122039 19.4968865,30.5016853 C19.4968865,30.9576057 19.0067924,31.44694 18.5423086,31.44694 Z M18.5423086,26.3592898 L5.91268193,26.3592898 C5.44714514,26.3592898 5.15068933,25.8697718 5.15068933,25.4138881 C5.15068933,24.9580044 5.54424636,24.5020839 6.00963272,24.5020839 L18.6029687,24.5020839 C19.0685054,24.5020839 19.4617616,24.9247008 19.4968865,25.4138881 C19.4968865,25.8697718 19.0067924,26.3592898 18.5423086,26.3592898 Z" id="订单管理icon"></path>
                </g>
            </g>
        </g>
    </g>
</svg>