<?xml version="1.0" encoding="UTF-8"?>
<svg width="78px" height="63px" viewBox="0 0 78 63" version="1.1" xmlns="http://www.w3.org/2000/svg" xmlns:xlink="http://www.w3.org/1999/xlink">
    <!-- Generator: Sketch 50.2 (55047) - http://www.bohemiancoding.com/sketch -->
    <title>首页统计-近7天销售icon</title>
    <desc>Created with Sketch.</desc>
    <defs></defs>
    <g id="Page-1" stroke="none" stroke-width="1" fill="none" fill-rule="evenodd" opacity="0.539999962">
        <g id="后管系统首页" transform="translate(-1127.000000, -297.000000)" fill="#FFFFFF">
            <g id="数据显示" transform="translate(300.000000, 191.000000)">
                <g id="Group-6" transform="translate(712.000000, 0.000000)">
                    <g id="Oval-3-+-Oval-3-Mask">
                        <path d="M140.21851,121.214991 L165.56188,127.699811 L181.077405,113.037899 L175.32753,107.642277 L192.624239,106 L192.499379,124.399053 L186.546286,118.835737 L166.499383,136.581095 L140.515433,128.789136 L115,147.272099 L140.21851,121.214991 Z M143.187034,191.794334 L143.187034,140.686662 L164.70262,146.819638 L164.546135,191.794334 L143.187034,191.794334 Z M117.562202,191.794334 L117.562202,157.108175 L138.921421,141.524256 L138.921421,191.794334 L117.562202,191.794334 Z M168.827795,191.794334 L168.827795,146.769141 L190.186897,128.018243 L190.186897,191.794334 L168.827795,191.794334 Z" id="首页统计-近7天销售icon"></path>
                    </g>
                </g>
            </g>
        </g>
    </g>
</svg>