<?xml version="1.0" encoding="UTF-8"?>
<svg width="57px" height="60px" viewBox="0 0 57 60" version="1.1" xmlns="http://www.w3.org/2000/svg" xmlns:xlink="http://www.w3.org/1999/xlink">
    <!-- Generator: Sketch 50.2 (55047) - http://www.bohemiancoding.com/sketch -->
    <title>快捷入口-订单列表icon</title>
    <desc>Created with Sketch.</desc>
    <defs></defs>
    <g id="Page-1" stroke="none" stroke-width="1" fill="none" fill-rule="evenodd">
        <g id="后管系统首页" transform="translate(-430.000000, -695.000000)" fill="#4A90E2">
            <g id="运营快捷入口" transform="translate(299.000000, 601.000000)">
                <path d="M165.943334,94 L152.484751,94 C150.833833,94 149.514089,95.4353779 149.514089,97.2101534 C149.514089,98.9885765 150.836177,100.428365 152.484751,100.428365 L166.026734,100.428365 C167.594251,100.428365 168.916079,98.9885765 168.916079,97.2101534 C168.916339,95.4353779 167.596334,94 165.943334,94 Z M180.557116,96.1425057 L173.855032,96.1425057 C173.923158,96.4941186 173.962472,96.8499729 173.962472,97.2098141 C173.964468,99.912101 171.959293,102.57155 169.573738,102.57155 L148.983917,102.57155 C146.473218,102.57155 144.465265,99.912101 144.465265,97.2101534 C144.467695,96.8499729 144.507009,96.4941186 144.575136,96.1425057 L137.791994,96.1425057 C132.339445,96.1425057 131,99.1639163 131,103.522559 L131,146.69748 C131,151.379572 132.918129,154 138.203877,154 L180.144886,154 C185.43072,154 188,151.945546 188,146.699855 L188,103.522559 C188.000347,99.1642557 185.594744,96.142845 180.557116,96.142845 L180.557116,96.1425057 Z M173.671307,138.771049 L144.526623,138.771049 C143.452307,138.771049 142.380074,137.483017 142.380074,136.431317 C142.380074,135.38318 143.287588,134.485189 144.361904,134.485189 L173.423448,134.485189 C174.497417,134.485189 175.404931,135.301321 175.486336,136.431317 C175.486336,137.483357 174.745189,138.771049 173.671307,138.771049 Z M173.789943,127.339092 L144.644651,127.339092 C143.570335,127.339092 142.886206,126.210199 142.886206,125.157735 C142.886206,124.105696 143.794415,123.053657 144.868383,123.053657 L173.929928,123.053657 C175.004243,123.053657 175.911758,124.028163 175.992815,125.157735 C175.992815,126.209859 174.861829,127.339092 173.789943,127.339092 Z M173.789943,115.598361 L144.644651,115.598361 C143.570335,115.598361 142.886206,114.468704 142.886206,113.416665 C142.886206,112.364626 143.794415,111.312501 144.868383,111.312501 L173.929928,111.312501 C175.004243,111.312501 175.911758,112.287771 175.992815,113.416665 C175.992815,114.468704 174.861829,115.598361 173.789943,115.598361 Z" id="快捷入口-订单列表icon"></path>
            </g>
        </g>
    </g>
</svg>