<?xml version="1.0" encoding="UTF-8"?>
<svg width="24px" height="24px" viewBox="0 0 24 24" version="1.1" xmlns="http://www.w3.org/2000/svg" xmlns:xlink="http://www.w3.org/1999/xlink">
    <!-- Generator: Sketch 50.2 (55047) - http://www.bohemiancoding.com/sketch -->
    <title>退出系统-默认</title>
    <desc>Created with Sketch.</desc>
    <defs></defs>
    <g id="Page-1" stroke="none" stroke-width="1" fill="none" fill-rule="evenodd">
        <g id="后管系统首页" transform="translate(-1782.000000, -194.000000)" fill="#4A90E2">
            <path d="M1794.00001,194 C1787.37274,194 1782,199.372742 1782,205.999985 C1782,212.627258 1787.37274,218 1794.00001,218 C1800.62726,218 1806,212.627258 1806,205.999985 C1806,199.372742 1800.62726,194 1794.00001,194 Z M1796.10834,212.752017 L1790.48128,212.752017 C1789.23888,212.752017 1788.23149,211.744601 1788.23149,210.502111 L1788.23149,201.500291 C1788.23149,200.257802 1789.23888,199.250503 1790.48128,199.250503 L1796.10594,199.250503 C1796.72719,199.250503 1797.23088,199.754108 1797.23088,200.375353 C1797.23088,200.996598 1796.72719,201.500291 1796.10594,201.500291 L1791.60862,201.500291 C1790.98738,201.500291 1790.48368,201.999209 1790.48368,202.615648 L1790.48368,209.374741 C1790.48368,209.995986 1790.98257,210.499709 1791.59901,210.499709 L1796.10834,210.499709 C1796.72959,210.499709 1797.23328,211.003402 1797.23328,211.624647 C1797.23328,212.248294 1796.72959,212.752017 1796.10834,212.752017 Z M1801.61065,206.352638 L1799.36083,209.166097 C1799.25292,209.302869 1799.08981,209.377144 1798.92192,209.377144 C1798.85954,209.377144 1798.79716,209.367651 1798.73478,209.346027 C1798.50932,209.26683 1798.35825,209.053351 1798.35825,208.815876 L1798.35825,207.127355 L1793.85853,207.127355 C1793.23728,207.127355 1792.73359,206.623662 1792.73359,206.002388 C1792.73359,205.381143 1793.23728,204.87745 1793.85853,204.87745 L1798.35825,204.87745 L1798.35825,203.188929 C1798.35825,202.949051 1798.50932,202.737975 1798.73478,202.658778 C1798.79476,202.637272 1798.85954,202.627661 1798.92192,202.627661 C1799.08981,202.627661 1799.25292,202.701936 1799.36083,202.838708 L1801.61065,205.652167 C1801.77373,205.856123 1801.77373,206.146279 1801.61065,206.352638 Z" id="退出系统-默认"></path>
        </g>
    </g>
</svg>