<?xml version="1.0" encoding="UTF-8"?>
<svg width="65px" height="60px" viewBox="0 0 65 60" version="1.1" xmlns="http://www.w3.org/2000/svg" xmlns:xlink="http://www.w3.org/1999/xlink">
    <!-- Generator: Sketch 50.2 (55047) - http://www.bohemiancoding.com/sketch -->
    <title>快捷入口-交易统计icon</title>
    <desc>Created with Sketch.</desc>
    <defs></defs>
    <g id="Page-1" stroke="none" stroke-width="1" fill="none" fill-rule="evenodd">
        <g id="后管系统首页" transform="translate(-627.000000, -695.000000)" fill="#4A90E2">
            <g id="运营快捷入口" transform="translate(299.000000, 601.000000)">
                <path d="M387.076034,95.9043419 L387.076034,141.732039 C387.076034,142.780831 386.294313,143.638456 385.33358,143.638456 L374.874414,143.638456 C373.912273,143.638456 373.130182,142.782833 373.130182,141.732039 L373.130182,95.9043419 C373.130182,94.8556233 373.912273,94 374.874414,94 L385.33358,94 C386.294313,94 387.076034,94.8518429 387.076034,95.9043419 Z M353.95445,141.728332 L353.95445,111.17903 C353.95445,110.126531 354.734763,109.270908 355.6972,109.270908 L366.154291,109.270908 C367.116802,109.270908 367.902303,110.126531 367.902303,111.17903 L367.902303,141.728332 C367.902303,142.782833 367.116802,143.638456 366.154291,143.638456 L355.6972,143.638456 C354.734763,143.638456 353.95445,142.782833 353.95445,141.728332 Z M336.521468,143.638456 L346.98234,143.638456 C347.941071,143.638456 348.724867,142.782833 348.724867,141.728332 L348.724867,126.455646 C348.724867,125.401145 347.941071,124.545522 346.98234,124.545522 L336.521468,124.545522 C335.561033,124.545522 334.778941,125.401145 334.778941,126.455646 L334.778941,141.728332 C334.778941,142.782833 335.561033,143.638456 336.521468,143.638456 Z M328,148.904805 L328,154 L392.403239,154 L392.403239,148.902804 L328,148.902804 L328,148.904805 Z" id="快捷入口-交易统计icon"></path>
            </g>
        </g>
    </g>
</svg>